<mxfile host="Electron" agent="Mozilla/5.0 (Windows NT 10.0; Win64; x64) AppleWebKit/537.36 (KHTML, like Gecko) draw.io/26.0.9 Chrome/128.0.6613.186 Electron/32.2.5 Safari/537.36" version="26.0.9">
  <diagram name="Seite-1" id="CTzFbpywGcENRGmmJhBq">
    <mxGraphModel dx="2074" dy="1196" grid="1" gridSize="10" guides="1" tooltips="1" connect="1" arrows="1" fold="1" page="1" pageScale="1" pageWidth="500" pageHeight="350" math="0" shadow="0">
      <root>
        <mxCell id="0" />
        <mxCell id="1" parent="0" />
        <mxCell id="9yAdRISJQoQtuXoPjSeq-6" value="" style="endArrow=none;html=1;rounded=0;strokeWidth=20;startArrow=none;startFill=0;endFill=0;endSize=18;strokeColor=#FFB570;" parent="1" edge="1">
          <mxGeometry width="50" height="50" relative="1" as="geometry">
            <mxPoint x="47" y="253" as="sourcePoint" />
            <mxPoint x="453" y="253" as="targetPoint" />
          </mxGeometry>
        </mxCell>
        <mxCell id="9yAdRISJQoQtuXoPjSeq-7" value="" style="endArrow=none;html=1;rounded=0;strokeWidth=20;startArrow=none;startFill=0;endFill=0;endSize=18;strokeColor=#FFB570;" parent="1" edge="1">
          <mxGeometry width="50" height="50" relative="1" as="geometry">
            <mxPoint x="51" y="106" as="sourcePoint" />
            <mxPoint x="452" y="106" as="targetPoint" />
          </mxGeometry>
        </mxCell>
        <mxCell id="9yAdRISJQoQtuXoPjSeq-8" value="" style="endArrow=none;html=1;rounded=0;strokeWidth=20;startArrow=none;startFill=0;endFill=0;endSize=18;strokeColor=#FFB570;" parent="1" edge="1">
          <mxGeometry width="50" height="50" relative="1" as="geometry">
            <mxPoint x="451.11106299974455" y="104.33454545454546" as="sourcePoint" />
            <mxPoint x="451.11106299974455" y="262" as="targetPoint" />
          </mxGeometry>
        </mxCell>
        <mxCell id="9yAdRISJQoQtuXoPjSeq-9" value="" style="endArrow=none;html=1;rounded=0;strokeWidth=20;startArrow=none;startFill=0;endFill=0;endSize=18;strokeColor=#FFB570;" parent="1" edge="1">
          <mxGeometry width="50" height="50" relative="1" as="geometry">
            <mxPoint x="49.88466575279354" y="252" as="sourcePoint" />
            <mxPoint x="49.88466575279354" y="327" as="targetPoint" />
          </mxGeometry>
        </mxCell>
        <mxCell id="9yAdRISJQoQtuXoPjSeq-10" value="" style="endArrow=none;html=1;rounded=0;strokeWidth=20;startArrow=none;startFill=0;endFill=0;endSize=18;strokeColor=#FFB570;" parent="1" edge="1">
          <mxGeometry width="50" height="50" relative="1" as="geometry">
            <mxPoint x="50" y="21" as="sourcePoint" />
            <mxPoint x="50" y="116" as="targetPoint" />
          </mxGeometry>
        </mxCell>
        <mxCell id="9yAdRISJQoQtuXoPjSeq-12" value="" style="rounded=0;whiteSpace=wrap;html=1;rotation=-45;fillColor=#B3B3B3;fontColor=#333333;strokeColor=#666666;" parent="1" vertex="1">
          <mxGeometry x="419.54" y="250.69" width="82.28" height="25.55" as="geometry" />
        </mxCell>
        <mxCell id="9yAdRISJQoQtuXoPjSeq-14" value="" style="rounded=0;whiteSpace=wrap;html=1;rotation=45;fillColor=#B3B3B3;fontColor=#333333;strokeColor=#666666;" parent="1" vertex="1">
          <mxGeometry x="419.41" y="84.01" width="82.17" height="23.33" as="geometry" />
        </mxCell>
        <mxCell id="9yAdRISJQoQtuXoPjSeq-17" value="" style="endArrow=open;startArrow=open;html=1;rounded=0;strokeWidth=15;startFill=0;endFill=0;endSize=50;startSize=50;strokeColor=#7EA6E0;" parent="1" edge="1">
          <mxGeometry width="50" height="50" relative="1" as="geometry">
            <mxPoint x="370" y="181" as="sourcePoint" />
            <mxPoint x="129.99636609692467" y="181" as="targetPoint" />
          </mxGeometry>
        </mxCell>
        <mxCell id="9yAdRISJQoQtuXoPjSeq-18" value="" style="rounded=0;whiteSpace=wrap;html=1;rotation=0;fillColor=#B3B3B3;fontColor=#333333;strokeColor=#666666;" parent="1" vertex="1">
          <mxGeometry x="5" y="15" width="90" height="25" as="geometry" />
        </mxCell>
        <mxCell id="9yAdRISJQoQtuXoPjSeq-20" value="" style="rounded=0;whiteSpace=wrap;html=1;rotation=-45;fillColor=#B3B3B3;fontColor=#333333;strokeColor=#666666;" parent="1" vertex="1">
          <mxGeometry x="3.4099999999999966" y="229.69" width="80.38" height="24.45" as="geometry" />
        </mxCell>
        <mxCell id="9yAdRISJQoQtuXoPjSeq-21" value="" style="rounded=0;whiteSpace=wrap;html=1;rotation=45;fillColor=#B3B3B3;fontColor=#333333;strokeColor=#666666;" parent="1" vertex="1">
          <mxGeometry x="2.1799999999999997" y="104.53999999999999" width="83.71" height="26.67" as="geometry" />
        </mxCell>
        <mxCell id="9yAdRISJQoQtuXoPjSeq-22" value="&lt;font style=&quot;font-size: 75px; color: rgb(126, 166, 224);&quot;&gt;z-Ref&lt;/font&gt;" style="text;html=1;align=center;verticalAlign=middle;resizable=1;points=[];autosize=0;strokeColor=#7EA6E0;fillColor=none;resizeWidth=0;" parent="1" vertex="1">
          <mxGeometry x="160" y="15" width="200" height="79.15" as="geometry" />
        </mxCell>
      </root>
    </mxGraphModel>
  </diagram>
</mxfile>
